<mxfile host="app.diagrams.net" modified="2020-03-14T02:56:52.549Z" agent="Mozilla/5.0 (Macintosh; Intel Mac OS X 10_15_3) AppleWebKit/537.36 (KHTML, like Gecko) Chrome/80.0.3987.132 Safari/537.36" etag="RScPCZAAYxo2tyB9LmE3" version="12.8.4" type="github">
  <diagram id="0rp5BLN7Kzp_F5bG6_N5" name="Page-1">
    <mxGraphModel dx="820" dy="992" grid="1" gridSize="10" guides="1" tooltips="1" connect="1" arrows="1" fold="1" page="1" pageScale="1" pageWidth="1600" pageHeight="1200" math="0" shadow="0">
      <root>
        <mxCell id="0" />
        <mxCell id="1" parent="0" />
        <mxCell id="LuCzuRn_yOuHDqlbm_r1-9" value="&lt;div style=&quot;text-align: left ; font-size: 18px&quot;&gt;&lt;div&gt;1. 接入qci，规范git分支，push到test&amp;amp;pre分支后，自动编译发布。&lt;/div&gt;&lt;div&gt;2. IP设置白名单，直接在sparta上进行修改，更高效。&lt;/div&gt;&lt;/div&gt;" style="rounded=0;whiteSpace=wrap;html=1;fillColor=#fff2cc;strokeColor=#d6b656;gradientColor=#ffd966;" parent="1" vertex="1">
          <mxGeometry x="50" y="530" width="380" height="170" as="geometry" />
        </mxCell>
        <mxCell id="LuCzuRn_yOuHDqlbm_r1-3" value="&lt;font style=&quot;font-size: 18px&quot;&gt;今年春节卡券红包活动&lt;/font&gt;" style="rounded=0;whiteSpace=wrap;html=1;gradientColor=#7ea6e0;fillColor=#dae8fc;strokeColor=#6c8ebf;" parent="1" vertex="1">
          <mxGeometry x="50" y="130" width="380" height="40" as="geometry" />
        </mxCell>
        <mxCell id="LuCzuRn_yOuHDqlbm_r1-4" value="&lt;div style=&quot;text-align: left ; font-size: 18px&quot;&gt;&lt;font style=&quot;font-size: 18px&quot;&gt;1. 全部迁移到tafgo平台上。&lt;/font&gt;&lt;/div&gt;&lt;div style=&quot;text-align: left ; font-size: 18px&quot;&gt;&lt;font style=&quot;font-size: 18px&quot;&gt;2. 可进行快速扩容，不需要运维协助了。&lt;/font&gt;&lt;/div&gt;&lt;div style=&quot;text-align: left ; font-size: 18px&quot;&gt;&lt;font style=&quot;font-size: 18px&quot;&gt;3. 有IP池策略，可以预先全部填充。&lt;/font&gt;&lt;/div&gt;&lt;div style=&quot;text-align: left ; font-size: 18px&quot;&gt;&lt;font style=&quot;font-size: 18px&quot;&gt;4. 春节高峰过后释放机器，不再浪费资源。&lt;/font&gt;&lt;/div&gt;" style="rounded=0;whiteSpace=wrap;html=1;fillColor=#ffcd28;strokeColor=#d79b00;gradientColor=#ffa500;" parent="1" vertex="1">
          <mxGeometry x="50" y="170" width="380" height="200" as="geometry" />
        </mxCell>
        <mxCell id="LuCzuRn_yOuHDqlbm_r1-5" value="部署架构" style="rounded=0;whiteSpace=wrap;html=1;gradientColor=#ea6b66;fillColor=#f8cecc;strokeColor=#b85450;" parent="1" vertex="1">
          <mxGeometry x="50" y="170" width="100" height="30" as="geometry" />
        </mxCell>
        <mxCell id="LuCzuRn_yOuHDqlbm_r1-6" value="&lt;div style=&quot;text-align: left ; font-size: 18px&quot;&gt;&lt;div&gt;1. 自己配置活动类型，只需要在接入层进行开发即可。&lt;/div&gt;&lt;div&gt;2. 有限流器中间件，达到预估瓶颈拒绝访问，并发警报提醒扩容。&lt;/div&gt;&lt;/div&gt;" style="rounded=0;whiteSpace=wrap;html=1;fillColor=#d5e8d4;strokeColor=#82b366;gradientColor=#97d077;" parent="1" vertex="1">
          <mxGeometry x="50" y="370" width="380" height="170" as="geometry" />
        </mxCell>
        <mxCell id="LuCzuRn_yOuHDqlbm_r1-7" value="开发设计" style="rounded=0;whiteSpace=wrap;html=1;gradientColor=#ea6b66;fillColor=#f8cecc;strokeColor=#b85450;" parent="1" vertex="1">
          <mxGeometry x="50" y="370" width="100" height="30" as="geometry" />
        </mxCell>
        <mxCell id="LuCzuRn_yOuHDqlbm_r1-8" value="开发流程" style="rounded=0;whiteSpace=wrap;html=1;gradientColor=#ea6b66;fillColor=#f8cecc;strokeColor=#b85450;" parent="1" vertex="1">
          <mxGeometry x="50" y="540" width="100" height="30" as="geometry" />
        </mxCell>
      </root>
    </mxGraphModel>
  </diagram>
</mxfile>
